solid Untitled-54c6f26e
facet normal 1.0 0.0 0.0
  outer loop
    vertex 11.5 9.0 0.0
    vertex 11.5 4.5 7.5
    vertex 11.5 4.5 0.0
  endloop
endfacet
facet normal 1.0 0.0 0.0
  outer loop
    vertex 11.5 4.5 7.5
    vertex 11.5 9.0 0.0
    vertex 11.5 9.0 7.5
  endloop
endfacet
facet normal 0.96592515668215 0.0 0.258821544096632
  outer loop
    vertex -4.33253002166748 9.0 4.875
    vertex -4.5 4.5 5.5
    vertex -4.33253002166748 4.5 4.875
  endloop
endfacet
facet normal 0.96592515668215 0.0 0.258821544096632
  outer loop
    vertex -4.5 4.5 5.5
    vertex -4.33253002166748 9.0 4.875
    vertex -4.5 9.0 5.5
  endloop
endfacet
facet normal 0.96592515668215 0.0 -0.258821544096633
  outer loop
    vertex -4.5 9.0 5.5
    vertex -4.33253002166748 4.5 6.125
    vertex -4.5 4.5 5.5
  endloop
endfacet
facet normal 0.96592515668215 0.0 -0.258821544096633
  outer loop
    vertex -4.33253002166748 4.5 6.125
    vertex -4.5 9.0 5.5
    vertex -4.33253002166748 9.0 6.125
  endloop
endfacet
facet normal 0.707106781186548 0.0 0.707106781186548
  outer loop
    vertex -3.875 9.0 4.41746997833252
    vertex -4.33253002166748 4.5 4.875
    vertex -3.875 4.5 4.41746997833252
  endloop
endfacet
facet normal 0.707106781186548 0.0 0.707106781186548
  outer loop
    vertex -4.33253002166748 4.5 4.875
    vertex -3.875 9.0 4.41746997833252
    vertex -4.33253002166748 9.0 4.875
  endloop
endfacet
facet normal 0.258821544096632 0.0 0.96592515668215
  outer loop
    vertex -3.25 4.5 4.25
    vertex -3.875 9.0 4.41746997833252
    vertex -3.875 4.5 4.41746997833252
  endloop
endfacet
facet normal 0.258821544096632 0.0 0.96592515668215
  outer loop
    vertex -3.875 9.0 4.41746997833252
    vertex -3.25 4.5 4.25
    vertex -3.25 9.0 4.25
  endloop
endfacet
facet normal -0.258821544096632 0.0 0.96592515668215
  outer loop
    vertex -2.625 4.5 4.41746997833252
    vertex -3.25 9.0 4.25
    vertex -3.25 4.5 4.25
  endloop
endfacet
facet normal -0.258821544096632 0.0 0.96592515668215
  outer loop
    vertex -3.25 9.0 4.25
    vertex -2.625 4.5 4.41746997833252
    vertex -2.625 9.0 4.41746997833252
  endloop
endfacet
facet normal -0.707106781186548 0.0 0.707106781186548
  outer loop
    vertex -2.16746997833252 9.0 4.875
    vertex -2.625 4.5 4.41746997833252
    vertex -2.16746997833252 4.5 4.875
  endloop
endfacet
facet normal -0.707106781186548 0.0 0.707106781186548
  outer loop
    vertex -2.625 4.5 4.41746997833252
    vertex -2.16746997833252 9.0 4.875
    vertex -2.625 9.0 4.41746997833252
  endloop
endfacet
facet normal -0.96592515668215 0.0 0.258821544096632
  outer loop
    vertex -2.0 9.0 5.5
    vertex -2.16746997833252 4.5 4.875
    vertex -2.0 4.5 5.5
  endloop
endfacet
facet normal -0.96592515668215 0.0 0.258821544096632
  outer loop
    vertex -2.16746997833252 4.5 4.875
    vertex -2.0 9.0 5.5
    vertex -2.16746997833252 9.0 4.875
  endloop
endfacet
facet normal -0.96592515668215 0.0 -0.258821544096632
  outer loop
    vertex -2.16746997833252 9.0 6.125
    vertex -2.0 4.5 5.5
    vertex -2.16746997833252 4.5 6.125
  endloop
endfacet
facet normal -0.96592515668215 0.0 -0.258821544096632
  outer loop
    vertex -2.0 4.5 5.5
    vertex -2.16746997833252 9.0 6.125
    vertex -2.0 9.0 5.5
  endloop
endfacet
facet normal -0.707106781186548 0.0 -0.707106781186548
  outer loop
    vertex -2.625 9.0 6.58253002166748
    vertex -2.16746997833252 4.5 6.125
    vertex -2.625 4.5 6.58253002166748
  endloop
endfacet
facet normal -0.707106781186548 0.0 -0.707106781186548
  outer loop
    vertex -2.16746997833252 4.5 6.125
    vertex -2.625 9.0 6.58253002166748
    vertex -2.16746997833252 9.0 6.125
  endloop
endfacet
facet normal -0.258821544096632 0.0 -0.96592515668215
  outer loop
    vertex -2.625 9.0 6.58253002166748
    vertex -3.25 4.5 6.75
    vertex -3.25 9.0 6.75
  endloop
endfacet
facet normal -0.258821544096632 0.0 -0.96592515668215
  outer loop
    vertex -3.25 4.5 6.75
    vertex -2.625 9.0 6.58253002166748
    vertex -2.625 4.5 6.58253002166748
  endloop
endfacet
facet normal 0.258821544096632 0.0 -0.96592515668215
  outer loop
    vertex -3.25 9.0 6.75
    vertex -3.875 4.5 6.58253002166748
    vertex -3.875 9.0 6.58253002166748
  endloop
endfacet
facet normal 0.258821544096632 0.0 -0.96592515668215
  outer loop
    vertex -3.875 4.5 6.58253002166748
    vertex -3.25 9.0 6.75
    vertex -3.25 4.5 6.75
  endloop
endfacet
facet normal 0.707106781186548 0.0 -0.707106781186548
  outer loop
    vertex -4.33253002166748 9.0 6.125
    vertex -3.875 4.5 6.58253002166748
    vertex -4.33253002166748 4.5 6.125
  endloop
endfacet
facet normal 0.707106781186548 0.0 -0.707106781186548
  outer loop
    vertex -3.875 4.5 6.58253002166748
    vertex -4.33253002166748 9.0 6.125
    vertex -3.875 9.0 6.58253002166748
  endloop
endfacet
facet normal 0.965925156682149 0.0 0.258821544096634
  outer loop
    vertex 5.16746997833252 9.0 4.875
    vertex 5.0 4.5 5.5
    vertex 5.16746997833252 4.5 4.875
  endloop
endfacet
facet normal 0.965925156682149 0.0 0.258821544096634
  outer loop
    vertex 5.0 4.5 5.5
    vertex 5.16746997833252 9.0 4.875
    vertex 5.0 9.0 5.5
  endloop
endfacet
facet normal 0.965925156682149 0.0 -0.258821544096634
  outer loop
    vertex 5.0 9.0 5.5
    vertex 5.16746997833252 4.5 6.125
    vertex 5.0 4.5 5.5
  endloop
endfacet
facet normal 0.965925156682149 0.0 -0.258821544096634
  outer loop
    vertex 5.16746997833252 4.5 6.125
    vertex 5.0 9.0 5.5
    vertex 5.16746997833252 9.0 6.125
  endloop
endfacet
facet normal 0.707106781186548 0.0 0.707106781186547
  outer loop
    vertex 5.625 9.0 4.41746997833252
    vertex 5.16746997833252 4.5 4.875
    vertex 5.625 4.5 4.41746997833252
  endloop
endfacet
facet normal 0.707106781186548 0.0 0.707106781186547
  outer loop
    vertex 5.16746997833252 4.5 4.875
    vertex 5.625 9.0 4.41746997833252
    vertex 5.16746997833252 9.0 4.875
  endloop
endfacet
facet normal 0.258821544096632 0.0 0.96592515668215
  outer loop
    vertex 6.25 4.5 4.25
    vertex 5.625 9.0 4.41746997833252
    vertex 5.625 4.5 4.41746997833252
  endloop
endfacet
facet normal 0.258821544096632 0.0 0.96592515668215
  outer loop
    vertex 5.625 9.0 4.41746997833252
    vertex 6.25 4.5 4.25
    vertex 6.25 9.0 4.25
  endloop
endfacet
facet normal -0.258821544096632 0.0 0.96592515668215
  outer loop
    vertex 6.875 4.5 4.41746997833252
    vertex 6.25 9.0 4.25
    vertex 6.25 4.5 4.25
  endloop
endfacet
facet normal -0.258821544096632 0.0 0.96592515668215
  outer loop
    vertex 6.25 9.0 4.25
    vertex 6.875 4.5 4.41746997833252
    vertex 6.875 9.0 4.41746997833252
  endloop
endfacet
facet normal -0.707106781186547 0.0 0.707106781186548
  outer loop
    vertex 7.33253002166748 4.5 4.875
    vertex 6.875 9.0 4.41746997833252
    vertex 6.875 4.5 4.41746997833252
  endloop
endfacet
facet normal -0.707106781186547 0.0 0.707106781186548
  outer loop
    vertex 6.875 9.0 4.41746997833252
    vertex 7.33253002166748 4.5 4.875
    vertex 7.33253002166748 9.0 4.875
  endloop
endfacet
facet normal -0.96592515668215 0.0 0.258821544096629
  outer loop
    vertex 7.5 9.0 5.5
    vertex 7.33253002166748 4.5 4.875
    vertex 7.5 4.5 5.5
  endloop
endfacet
facet normal -0.96592515668215 0.0 0.258821544096629
  outer loop
    vertex 7.33253002166748 4.5 4.875
    vertex 7.5 9.0 5.5
    vertex 7.33253002166748 9.0 4.875
  endloop
endfacet
facet normal -0.96592515668215 0.0 -0.25882154409663
  outer loop
    vertex 7.33253002166748 9.0 6.125
    vertex 7.5 4.5 5.5
    vertex 7.33253002166748 4.5 6.125
  endloop
endfacet
facet normal -0.96592515668215 0.0 -0.25882154409663
  outer loop
    vertex 7.5 4.5 5.5
    vertex 7.33253002166748 9.0 6.125
    vertex 7.5 9.0 5.5
  endloop
endfacet
facet normal -0.707106781186547 0.0 -0.707106781186548
  outer loop
    vertex 7.33253002166748 9.0 6.125
    vertex 6.875 4.5 6.58253002166748
    vertex 6.875 9.0 6.58253002166748
  endloop
endfacet
facet normal -0.707106781186547 0.0 -0.707106781186548
  outer loop
    vertex 6.875 4.5 6.58253002166748
    vertex 7.33253002166748 9.0 6.125
    vertex 7.33253002166748 4.5 6.125
  endloop
endfacet
facet normal -0.258821544096632 0.0 -0.96592515668215
  outer loop
    vertex 6.875 9.0 6.58253002166748
    vertex 6.25 4.5 6.75
    vertex 6.25 9.0 6.75
  endloop
endfacet
facet normal -0.258821544096632 0.0 -0.96592515668215
  outer loop
    vertex 6.25 4.5 6.75
    vertex 6.875 9.0 6.58253002166748
    vertex 6.875 4.5 6.58253002166748
  endloop
endfacet
facet normal 0.258821544096632 0.0 -0.96592515668215
  outer loop
    vertex 6.25 9.0 6.75
    vertex 5.625 4.5 6.58253002166748
    vertex 5.625 9.0 6.58253002166748
  endloop
endfacet
facet normal 0.258821544096632 0.0 -0.96592515668215
  outer loop
    vertex 5.625 4.5 6.58253002166748
    vertex 6.25 9.0 6.75
    vertex 6.25 4.5 6.75
  endloop
endfacet
facet normal 0.707106781186548 0.0 -0.707106781186547
  outer loop
    vertex 5.16746997833252 9.0 6.125
    vertex 5.625 4.5 6.58253002166748
    vertex 5.16746997833252 4.5 6.125
  endloop
endfacet
facet normal 0.707106781186548 0.0 -0.707106781186547
  outer loop
    vertex 5.625 4.5 6.58253002166748
    vertex 5.16746997833252 9.0 6.125
    vertex 5.625 9.0 6.58253002166748
  endloop
endfacet
facet normal 0.0 1.0 0.0
  outer loop
    vertex -17.5 -20.5 7.504
    vertex -8.5 -20.5 -9.457
    vertex -17.5 -20.5 -9.457
  endloop
endfacet
facet normal 0.0 1.0 0.0
  outer loop
    vertex -8.5 -20.5 -9.457
    vertex -17.5 -20.5 7.504
    vertex -8.5 -20.5 7.504
  endloop
endfacet
facet normal 0.0 -1.0 0.0
  outer loop
    vertex 11.5 4.5 0.0
    vertex 6.875 4.5 4.41746997833252
    vertex -8.5 4.5 0.0
  endloop
endfacet
facet normal 0.0 -1.0 0.0
  outer loop
    vertex 6.875 4.5 4.41746997833252
    vertex 11.5 4.5 0.0
    vertex 11.5 4.5 7.5
  endloop
endfacet
facet normal 0.0 -1.0 0.0
  outer loop
    vertex -8.5 4.5 0.0
    vertex 6.875 4.5 4.41746997833252
    vertex 6.25 4.5 4.25
  endloop
endfacet
facet normal 0.0 -1.0 0.0
  outer loop
    vertex 6.875 4.5 4.41746997833252
    vertex 11.5 4.5 7.5
    vertex 7.33253002166748 4.5 4.875
  endloop
endfacet
facet normal 0.0 -1.0 0.0
  outer loop
    vertex 7.33253002166748 4.5 4.875
    vertex 11.5 4.5 7.5
    vertex 7.5 4.5 5.5
  endloop
endfacet
facet normal 0.0 -1.0 0.0
  outer loop
    vertex 7.5 4.5 5.5
    vertex 11.5 4.5 7.5
    vertex 7.33253002166748 4.5 6.125
  endloop
endfacet
facet normal 0.0 -1.0 0.0
  outer loop
    vertex 7.33253002166748 4.5 6.125
    vertex 11.5 4.5 7.5
    vertex 6.875 4.5 6.58253002166748
  endloop
endfacet
facet normal 0.0 -1.0 0.0
  outer loop
    vertex 6.875 4.5 6.58253002166748
    vertex 11.5 4.5 7.5
    vertex 6.25 4.5 6.75
  endloop
endfacet
facet normal 0.0 -1.0 0.0
  outer loop
    vertex 6.25 4.5 6.75
    vertex 11.5 4.5 7.5
    vertex -3.25 4.5 6.75
  endloop
endfacet
facet normal 0.0 -1.0 0.0
  outer loop
    vertex -8.5 4.5 0.0
    vertex -3.875 4.5 4.41746997833252
    vertex -8.5 4.5 7.5
  endloop
endfacet
facet normal 0.0 -1.0 0.0
  outer loop
    vertex -3.875 4.5 4.41746997833252
    vertex -8.5 4.5 0.0
    vertex -3.25 4.5 4.25
  endloop
endfacet
facet normal 0.0 -1.0 0.0
  outer loop
    vertex -3.25 4.5 4.25
    vertex -8.5 4.5 0.0
    vertex 6.25 4.5 4.25
  endloop
endfacet
facet normal 0.0 -1.0 0.0
  outer loop
    vertex -8.5 4.5 7.5
    vertex -3.875 4.5 4.41746997833252
    vertex -4.33253002166748 4.5 4.875
  endloop
endfacet
facet normal 0.0 -1.0 0.0
  outer loop
    vertex -8.5 4.5 7.5
    vertex -4.33253002166748 4.5 4.875
    vertex -4.5 4.5 5.5
  endloop
endfacet
facet normal 0.0 -1.0 0.0
  outer loop
    vertex -8.5 4.5 7.5
    vertex -4.5 4.5 5.5
    vertex -4.33253002166748 4.5 6.125
  endloop
endfacet
facet normal 0.0 -1.0 0.0
  outer loop
    vertex -8.5 4.5 7.5
    vertex -4.33253002166748 4.5 6.125
    vertex -3.875 4.5 6.58253002166748
  endloop
endfacet
facet normal 0.0 -1.0 0.0
  outer loop
    vertex -8.5 4.5 7.5
    vertex -3.875 4.5 6.58253002166748
    vertex -3.25 4.5 6.75
  endloop
endfacet
facet normal 0.0 -1.0 0.0
  outer loop
    vertex -8.5 4.5 7.5
    vertex -3.25 4.5 6.75
    vertex 11.5 4.5 7.5
  endloop
endfacet
facet normal 0.0 -1.0 0.0
  outer loop
    vertex 5.625 4.5 4.41746997833252
    vertex -3.25 4.5 4.25
    vertex 6.25 4.5 4.25
  endloop
endfacet
facet normal 0.0 -1.0 0.0
  outer loop
    vertex -3.25 4.5 4.25
    vertex 5.625 4.5 4.41746997833252
    vertex -2.625 4.5 4.41746997833252
  endloop
endfacet
facet normal 0.0 -1.0 0.0
  outer loop
    vertex -2.625 4.5 4.41746997833252
    vertex 5.625 4.5 4.41746997833252
    vertex 5.16746997833252 4.5 4.875
  endloop
endfacet
facet normal 0.0 -1.0 0.0
  outer loop
    vertex -2.625 4.5 4.41746997833252
    vertex 5.16746997833252 4.5 4.875
    vertex -2.16746997833252 4.5 4.875
  endloop
endfacet
facet normal 0.0 -1.0 0.0
  outer loop
    vertex -2.16746997833252 4.5 4.875
    vertex 5.16746997833252 4.5 4.875
    vertex 5.0 4.5 5.5
  endloop
endfacet
facet normal 0.0 -1.0 0.0
  outer loop
    vertex -2.16746997833252 4.5 4.875
    vertex 5.0 4.5 5.5
    vertex -2.0 4.5 5.5
  endloop
endfacet
facet normal 0.0 -1.0 0.0
  outer loop
    vertex -2.0 4.5 5.5
    vertex 5.0 4.5 5.5
    vertex 5.16746997833252 4.5 6.125
  endloop
endfacet
facet normal 0.0 -1.0 0.0
  outer loop
    vertex -2.0 4.5 5.5
    vertex 5.16746997833252 4.5 6.125
    vertex -2.16746997833252 4.5 6.125
  endloop
endfacet
facet normal 0.0 -1.0 0.0
  outer loop
    vertex -2.16746997833252 4.5 6.125
    vertex 5.16746997833252 4.5 6.125
    vertex 5.625 4.5 6.58253002166748
  endloop
endfacet
facet normal 0.0 -1.0 0.0
  outer loop
    vertex -2.16746997833252 4.5 6.125
    vertex 5.625 4.5 6.58253002166748
    vertex -2.625 4.5 6.58253002166748
  endloop
endfacet
facet normal 0.0 -1.0 0.0
  outer loop
    vertex -2.625 4.5 6.58253002166748
    vertex 5.625 4.5 6.58253002166748
    vertex 6.25 4.5 6.75
  endloop
endfacet
facet normal 0.0 -1.0 0.0
  outer loop
    vertex -2.625 4.5 6.58253002166748
    vertex 6.25 4.5 6.75
    vertex -3.25 4.5 6.75
  endloop
endfacet
facet normal 1.0 0.0 0.0
  outer loop
    vertex -13.158 -12.7550742711844 -5.29372593803688
    vertex -13.158 -12.8908780847459 -2.70910079403627
    vertex -13.158 -12.9931123557326 -4.01035282165521
  endloop
endfacet
facet normal 1.0 0.0 0.0
  outer loop
    vertex -13.158 -12.8908780847459 -2.70910079403627
    vertex -13.158 -12.7550742711844 -5.29372593803688
    vertex -13.158 -12.455338554842 -1.47864803044164
  endloop
endfacet
facet normal 1.0 0.0 0.0
  outer loop
    vertex -13.158 -12.455338554842 -1.47864803044164
    vertex -13.158 -12.7550742711844 -5.29372593803688
    vertex -13.158 -12.1929857331868 -6.47176038617424
  endloop
endfacet
facet normal 1.0 0.0 0.0
  outer loop
    vertex -13.158 -12.455338554842 -1.47864803044164
    vertex -13.158 -12.1929857331868 -6.47176038617424
    vertex -13.158 -11.7161750652207 -0.402847853290965
  endloop
endfacet
facet normal 1.0 0.0 0.0
  outer loop
    vertex -13.158 -11.7161750652207 -0.402847853290965
    vertex -13.158 -12.1929857331868 -6.47176038617424
    vertex -13.158 -11.345152146709 -7.46417506522068
  endloop
endfacet
facet normal 1.0 0.0 0.0
  outer loop
    vertex -13.158 -11.7161750652207 -0.402847853290965
    vertex -13.158 -11.345152146709 -7.46417506522068
    vertex -13.158 -10.7237603861742 0.444985733186787
  endloop
endfacet
facet normal 1.0 0.0 0.0
  outer loop
    vertex -13.158 -10.7237603861742 0.444985733186787
    vertex -13.158 -11.345152146709 -7.46417506522068
    vertex -13.158 -10.548682585826 -3.66604222607172
  endloop
endfacet
facet normal 1.0 0.0 0.0
  outer loop
    vertex -13.158 -10.548682585826 -3.66604222607172
    vertex -13.158 -11.345152146709 -7.46417506522068
    vertex -13.158 -10.2693519695584 -8.203338554842
  endloop
endfacet
facet normal 1.0 0.0 0.0
  outer loop
    vertex -13.158 -10.548682585826 -3.66604222607172
    vertex -13.158 -10.2693519695584 -8.203338554842
    vertex -13.158 -10.4830505654494 -4.32848246263042
  endloop
endfacet
facet normal 1.0 0.0 0.0
  outer loop
    vertex -13.158 -10.4830505654494 -4.32848246263042
    vertex -13.158 -10.2693519695584 -8.203338554842
    vertex -13.158 -10.2482027524725 -4.95136377865349
  endloop
endfacet
facet normal 1.0 0.0 0.0
  outer loop
    vertex -13.158 -10.2482027524725 -4.95136377865349
    vertex -13.158 -10.2693519695584 -8.203338554842
    vertex -13.158 -9.03889920596373 -8.63887808474593
  endloop
endfacet
facet normal 1.0 0.0 0.0
  outer loop
    vertex -13.158 -10.2482027524725 -4.95136377865349
    vertex -13.158 -9.03889920596373 -8.63887808474593
    vertex -13.158 -9.86014363724527 -5.49223784181399
  endloop
endfacet
facet normal 1.0 0.0 0.0
  outer loop
    vertex -13.158 -9.86014363724527 -5.49223784181399
    vertex -13.158 -9.03889920596373 -8.63887808474593
    vertex -13.158 -9.34531880717251 -5.9142449785442
  endloop
endfacet
facet normal 1.0 0.0 0.0
  outer loop
    vertex -13.158 -9.34531880717251 -5.9142449785442
    vertex -13.158 -9.03889920596373 -8.63887808474593
    vertex -13.158 -8.73881272363539 -6.1886260998757
  endloop
endfacet
facet normal 1.0 0.0 0.0
  outer loop
    vertex -13.158 -8.73881272363539 -6.1886260998757
    vertex -13.158 -9.03889920596373 -8.63887808474593
    vertex -13.158 -7.73764717834479 -8.74111235573261
  endloop
endfacet
facet normal 1.0 0.0 0.0
  outer loop
    vertex -13.158 -8.73881272363539 -6.1886260998757
    vertex -13.158 -7.73764717834479 -8.74111235573261
    vertex -13.158 -8.08195777392828 -6.29668258582601
  endloop
endfacet
facet normal 1.0 0.0 0.0
  outer loop
    vertex -13.158 -8.08195777392828 -6.29668258582601
    vertex -13.158 -7.73764717834479 -8.74111235573261
    vertex -13.158 -7.41951753736958 -6.2310505654494
  endloop
endfacet
facet normal 1.0 0.0 0.0
  outer loop
    vertex -13.158 -7.41951753736958 -6.2310505654494
    vertex -13.158 -7.73764717834479 -8.74111235573261
    vertex -13.158 -6.45427406196311 -8.50307427118442
  endloop
endfacet
facet normal 1.0 0.0 0.0
  outer loop
    vertex -13.158 -7.41951753736958 -6.2310505654494
    vertex -13.158 -6.45427406196311 -8.50307427118442
    vertex -13.158 -6.79663622134651 -5.99620275247248
  endloop
endfacet
facet normal 1.0 0.0 0.0
  outer loop
    vertex -13.158 -6.79663622134651 -5.99620275247248
    vertex -13.158 -6.45427406196311 -8.50307427118442
    vertex -13.158 -6.25576215818601 -5.60814363724529
  endloop
endfacet
facet normal 1.0 0.0 0.0
  outer loop
    vertex -13.158 -6.25576215818601 -5.60814363724529
    vertex -13.158 -6.45427406196311 -8.50307427118442
    vertex -13.158 -5.27623961382576 -7.9409857331868
  endloop
endfacet
facet normal 1.0 0.0 0.0
  outer loop
    vertex -13.158 -6.25576215818601 -5.60814363724529
    vertex -13.158 -5.27623961382576 -7.9409857331868
    vertex -13.158 -5.8337550214558 -5.09331880717253
  endloop
endfacet
facet normal 1.0 0.0 0.0
  outer loop
    vertex -13.158 -5.8337550214558 -5.09331880717253
    vertex -13.158 -5.27623961382576 -7.9409857331868
    vertex -13.158 -5.5593739001243 -4.48681272363541
  endloop
endfacet
facet normal 1.0 0.0 0.0
  outer loop
    vertex -13.158 -5.5593739001243 -4.48681272363541
    vertex -13.158 -5.27623961382576 -7.9409857331868
    vertex -13.158 -5.45131741417399 -3.8299577739283
  endloop
endfacet
facet normal 1.0 0.0 0.0
  outer loop
    vertex -13.158 -10.7237603861742 0.444985733186787
    vertex -13.158 -10.4406260998757 -3.0091872763646
    vertex -13.158 -9.54572593803687 1.00707427118441
  endloop
endfacet
facet normal 1.0 0.0 0.0
  outer loop
    vertex -13.158 -10.4406260998757 -3.0091872763646
    vertex -13.158 -10.7237603861742 0.444985733186787
    vertex -13.158 -10.548682585826 -3.66604222607172
  endloop
endfacet
facet normal 1.0 0.0 0.0
  outer loop
    vertex -13.158 -9.54572593803687 1.00707427118441
    vertex -13.158 -10.4406260998757 -3.0091872763646
    vertex -13.158 -10.1662449785442 -2.40268119282749
  endloop
endfacet
facet normal 1.0 0.0 0.0
  outer loop
    vertex -13.158 -9.54572593803687 1.00707427118441
    vertex -13.158 -10.1662449785442 -2.40268119282749
    vertex -13.158 -9.74423784181398 -1.88785636275473
  endloop
endfacet
facet normal 1.0 0.0 0.0
  outer loop
    vertex -13.158 -9.54572593803687 1.00707427118441
    vertex -13.158 -9.74423784181398 -1.88785636275473
    vertex -13.158 -9.20336377865347 -1.49979724752753
  endloop
endfacet
facet normal 1.0 0.0 0.0
  outer loop
    vertex -13.158 -9.54572593803687 1.00707427118441
    vertex -13.158 -9.20336377865347 -1.49979724752753
    vertex -13.158 -8.26235282165519 1.24511235573259
  endloop
endfacet
facet normal 1.0 0.0 0.0
  outer loop
    vertex -13.158 -8.26235282165519 1.24511235573259
    vertex -13.158 -9.20336377865347 -1.49979724752753
    vertex -13.158 -8.58048246263041 -1.26494943455062
  endloop
endfacet
facet normal 1.0 0.0 0.0
  outer loop
    vertex -13.158 -8.26235282165519 1.24511235573259
    vertex -13.158 -8.58048246263041 -1.26494943455062
    vertex -13.158 -7.9180422260717 -1.19931741417401
  endloop
endfacet
facet normal 1.0 0.0 0.0
  outer loop
    vertex -13.158 -8.26235282165519 1.24511235573259
    vertex -13.158 -7.9180422260717 -1.19931741417401
    vertex -13.158 -6.96110079403625 1.14287808474591
  endloop
endfacet
facet normal 1.0 0.0 0.0
  outer loop
    vertex -13.158 -6.96110079403625 1.14287808474591
    vertex -13.158 -7.9180422260717 -1.19931741417401
    vertex -13.158 -7.26118727636459 -1.30737390012432
  endloop
endfacet
facet normal 1.0 0.0 0.0
  outer loop
    vertex -13.158 -6.96110079403625 1.14287808474591
    vertex -13.158 -7.26118727636459 -1.30737390012432
    vertex -13.158 -6.65468119282747 -1.58175502145582
  endloop
endfacet
facet normal 1.0 0.0 0.0
  outer loop
    vertex -13.158 -6.96110079403625 1.14287808474591
    vertex -13.158 -6.65468119282747 -1.58175502145582
    vertex -13.158 -5.73064803044162 0.707338554841988
  endloop
endfacet
facet normal 1.0 0.0 0.0
  outer loop
    vertex -13.158 -5.73064803044162 0.707338554841988
    vertex -13.158 -6.65468119282747 -1.58175502145582
    vertex -13.158 -6.13985636275471 -2.00376215818602
  endloop
endfacet
facet normal 1.0 0.0 0.0
  outer loop
    vertex -13.158 -5.73064803044162 0.707338554841988
    vertex -13.158 -6.13985636275471 -2.00376215818602
    vertex -13.158 -5.75179724752752 -2.54463622134653
  endloop
endfacet
facet normal 1.0 0.0 0.0
  outer loop
    vertex -13.158 -5.73064803044162 0.707338554841988
    vertex -13.158 -5.75179724752752 -2.54463622134653
    vertex -13.158 -5.5169494345506 -3.16751753736959
  endloop
endfacet
facet normal 1.0 0.0 0.0
  outer loop
    vertex -13.158 -5.73064803044162 0.707338554841988
    vertex -13.158 -5.5169494345506 -3.16751753736959
    vertex -13.158 -4.65484785329095 -0.0318249347793328
  endloop
endfacet
facet normal 1.0 0.0 0.0
  outer loop
    vertex -13.158 -4.65484785329095 -0.0318249347793328
    vertex -13.158 -5.5169494345506 -3.16751753736959
    vertex -13.158 -5.45131741417399 -3.8299577739283
  endloop
endfacet
facet normal 1.0 0.0 0.0
  outer loop
    vertex -13.158 -4.65484785329095 -0.0318249347793328
    vertex -13.158 -5.45131741417399 -3.8299577739283
    vertex -13.158 -5.27623961382576 -7.9409857331868
  endloop
endfacet
facet normal 1.0 0.0 0.0
  outer loop
    vertex -13.158 -4.65484785329095 -0.0318249347793328
    vertex -13.158 -5.27623961382576 -7.9409857331868
    vertex -13.158 -4.28382493477932 -7.09315214670905
  endloop
endfacet
facet normal 1.0 0.0 0.0
  outer loop
    vertex -13.158 -4.65484785329095 -0.0318249347793328
    vertex -13.158 -4.28382493477932 -7.09315214670905
    vertex -13.158 -3.8070142668132 -1.02423961382578
  endloop
endfacet
facet normal 1.0 0.0 0.0
  outer loop
    vertex -13.158 -3.8070142668132 -1.02423961382578
    vertex -13.158 -4.28382493477932 -7.09315214670905
    vertex -13.158 -3.544661445158 -6.01735196955837
  endloop
endfacet
facet normal 1.0 0.0 0.0
  outer loop
    vertex -13.158 -3.8070142668132 -1.02423961382578
    vertex -13.158 -3.544661445158 -6.01735196955837
    vertex -13.158 -3.24492572881557 -2.20227406196313
  endloop
endfacet
facet normal 1.0 0.0 0.0
  outer loop
    vertex -13.158 -3.24492572881557 -2.20227406196313
    vertex -13.158 -3.544661445158 -6.01735196955837
    vertex -13.158 -3.10912191525407 -4.78689920596375
  endloop
endfacet
facet normal 1.0 0.0 0.0
  outer loop
    vertex -13.158 -3.24492572881557 -2.20227406196313
    vertex -13.158 -3.10912191525407 -4.78689920596375
    vertex -13.158 -3.00688764426739 -3.48564717834481
  endloop
endfacet
facet normal 0.0 -0.978175616949184 0.207779841192748
  outer loop
    vertex -8.5 -3.10912191525407 -4.78689920596375
    vertex -13.158 -3.544661445158 -6.01735196955837
    vertex -8.5 -3.544661445158 -6.01735196955837
  endloop
endfacet
facet normal 0.0 -0.891067710968399 0.453870393911673
  outer loop
    vertex -13.158 -3.544661445158 -6.01735196955837
    vertex -8.5 -3.10912191525407 -4.78689920596375
    vertex -13.158 -3.10912191525407 -4.78689920596375
  endloop
endfacet
facet normal 0.0 -0.99862247114652 -0.0524705643310399
  outer loop
    vertex -8.5 -3.00688764426739 -3.48564717834481
    vertex -13.158 -3.10912191525407 -4.78689920596375
    vertex -8.5 -3.10912191525407 -4.78689920596375
  endloop
endfacet
facet normal 0.0 -0.978175616949184 0.207779841192748
  outer loop
    vertex -13.158 -3.10912191525407 -4.78689920596375
    vertex -8.5 -3.00688764426739 -3.48564717834481
    vertex -13.158 -3.00688764426739 -3.48564717834481
  endloop
endfacet
facet normal 0.0 -0.951014854236883 -0.309145187607376
  outer loop
    vertex -8.5 -3.24492572881557 -2.20227406196313
    vertex -13.158 -3.00688764426739 -3.48564717834481
    vertex -8.5 -3.00688764426739 -3.48564717834481
  endloop
endfacet
facet normal 0.0 -0.99862247114652 -0.0524705643310399
  outer loop
    vertex -13.158 -3.00688764426739 -3.48564717834481
    vertex -8.5 -3.24492572881557 -2.20227406196313
    vertex -13.158 -3.24492572881557 -2.20227406196313
  endloop
endfacet
facet normal 0.0 -0.838597146637359 -0.544752077234847
  outer loop
    vertex -8.5 -3.8070142668132 -1.02423961382578
    vertex -13.158 -3.24492572881557 -2.20227406196313
    vertex -8.5 -3.24492572881557 -2.20227406196313
  endloop
endfacet
facet normal 0.0 -0.951014854236883 -0.309145187607376
  outer loop
    vertex -13.158 -3.24492572881557 -2.20227406196313
    vertex -8.5 -3.8070142668132 -1.02423961382578
    vertex -13.158 -3.8070142668132 -1.02423961382578
  endloop
endfacet
facet normal 0.0 -0.669030429341808 -0.743235013044135
  outer loop
    vertex -8.5 -4.65484785329095 -0.0318249347793328
    vertex -13.158 -3.8070142668132 -1.02423961382578
    vertex -8.5 -3.8070142668132 -1.02423961382578
  endloop
endfacet
facet normal 0.0 -0.838597146637359 -0.544752077234847
  outer loop
    vertex -13.158 -3.8070142668132 -1.02423961382578
    vertex -8.5 -4.65484785329095 -0.0318249347793328
    vertex -13.158 -4.65484785329095 -0.0318249347793328
  endloop
endfacet
facet normal 0.0 -0.669030429341808 -0.743235013044135
  outer loop
    vertex -8.5 -4.65484785329095 -0.0318249347793328
    vertex -13.158 -5.73064803044162 0.707338554841988
    vertex -13.158 -4.65484785329095 -0.0318249347793328
  endloop
endfacet
facet normal 0.0 -0.453870393911674 -0.891067710968399
  outer loop
    vertex -13.158 -5.73064803044162 0.707338554841988
    vertex -8.5 -4.65484785329095 -0.0318249347793328
    vertex -8.5 -5.73064803044162 0.707338554841988
  endloop
endfacet
facet normal 0.0 -0.453870393911674 -0.891067710968399
  outer loop
    vertex -8.5 -5.73064803044162 0.707338554841988
    vertex -13.158 -6.96110079403625 1.14287808474591
    vertex -13.158 -5.73064803044162 0.707338554841988
  endloop
endfacet
facet normal 0.0 -0.207779841192748 -0.978175616949184
  outer loop
    vertex -13.158 -6.96110079403625 1.14287808474591
    vertex -8.5 -5.73064803044162 0.707338554841988
    vertex -8.5 -6.96110079403625 1.14287808474591
  endloop
endfacet
facet normal 0.0 -0.207779841192748 -0.978175616949184
  outer loop
    vertex -8.5 -6.96110079403625 1.14287808474591
    vertex -13.158 -8.26235282165519 1.24511235573259
    vertex -13.158 -6.96110079403625 1.14287808474591
  endloop
endfacet
facet normal 0.0 0.0524705643310398 -0.99862247114652
  outer loop
    vertex -13.158 -8.26235282165519 1.24511235573259
    vertex -8.5 -6.96110079403625 1.14287808474591
    vertex -8.5 -8.26235282165519 1.24511235573259
  endloop
endfacet
facet normal 0.0 0.0524705643310398 -0.99862247114652
  outer loop
    vertex -8.5 -8.26235282165519 1.24511235573259
    vertex -13.158 -9.54572593803687 1.00707427118441
    vertex -13.158 -8.26235282165519 1.24511235573259
  endloop
endfacet
facet normal 0.0 0.309145187607376 -0.951014854236883
  outer loop
    vertex -13.158 -9.54572593803687 1.00707427118441
    vertex -8.5 -8.26235282165519 1.24511235573259
    vertex -8.5 -9.54572593803687 1.00707427118441
  endloop
endfacet
facet normal 0.0 0.309145187607376 -0.951014854236883
  outer loop
    vertex -8.5 -9.54572593803687 1.00707427118441
    vertex -13.158 -10.7237603861742 0.444985733186787
    vertex -13.158 -9.54572593803687 1.00707427118441
  endloop
endfacet
facet normal 0.0 0.544752077234846 -0.838597146637359
  outer loop
    vertex -13.158 -10.7237603861742 0.444985733186787
    vertex -8.5 -9.54572593803687 1.00707427118441
    vertex -8.5 -10.7237603861742 0.444985733186787
  endloop
endfacet
facet normal 0.0 0.544752077234846 -0.838597146637359
  outer loop
    vertex -8.5 -10.7237603861742 0.444985733186787
    vertex -13.158 -11.7161750652207 -0.402847853290965
    vertex -13.158 -10.7237603861742 0.444985733186787
  endloop
endfacet
facet normal 0.0 0.743235013044135 -0.669030429341808
  outer loop
    vertex -13.158 -11.7161750652207 -0.402847853290965
    vertex -8.5 -10.7237603861742 0.444985733186787
    vertex -8.5 -11.7161750652207 -0.402847853290965
  endloop
endfacet
facet normal 0.0 0.743235013044135 -0.669030429341808
  outer loop
    vertex -13.158 -11.7161750652207 -0.402847853290965
    vertex -8.5 -12.455338554842 -1.47864803044164
    vertex -13.158 -12.455338554842 -1.47864803044164
  endloop
endfacet
facet normal 0.0 0.891067710968399 -0.453870393911674
  outer loop
    vertex -8.5 -12.455338554842 -1.47864803044164
    vertex -13.158 -11.7161750652207 -0.402847853290965
    vertex -8.5 -11.7161750652207 -0.402847853290965
  endloop
endfacet
facet normal 0.0 0.891067710968399 -0.453870393911674
  outer loop
    vertex -13.158 -12.455338554842 -1.47864803044164
    vertex -8.5 -12.8908780847459 -2.70910079403627
    vertex -13.158 -12.8908780847459 -2.70910079403627
  endloop
endfacet
facet normal 0.0 0.978175616949184 -0.207779841192748
  outer loop
    vertex -8.5 -12.8908780847459 -2.70910079403627
    vertex -13.158 -12.455338554842 -1.47864803044164
    vertex -8.5 -12.455338554842 -1.47864803044164
  endloop
endfacet
facet normal 0.0 0.978175616949184 -0.207779841192748
  outer loop
    vertex -13.158 -12.8908780847459 -2.70910079403627
    vertex -8.5 -12.9931123557326 -4.01035282165521
    vertex -13.158 -12.9931123557326 -4.01035282165521
  endloop
endfacet
facet normal 0.0 0.99862247114652 0.0524705643310404
  outer loop
    vertex -8.5 -12.9931123557326 -4.01035282165521
    vertex -13.158 -12.8908780847459 -2.70910079403627
    vertex -8.5 -12.8908780847459 -2.70910079403627
  endloop
endfacet
facet normal 0.0 0.99862247114652 0.0524705643310404
  outer loop
    vertex -13.158 -12.9931123557326 -4.01035282165521
    vertex -8.5 -12.7550742711844 -5.29372593803688
    vertex -13.158 -12.7550742711844 -5.29372593803688
  endloop
endfacet
facet normal 0.0 0.951014854236884 0.309145187607375
  outer loop
    vertex -8.5 -12.7550742711844 -5.29372593803688
    vertex -13.158 -12.9931123557326 -4.01035282165521
    vertex -8.5 -12.9931123557326 -4.01035282165521
  endloop
endfacet
facet normal 0.0 0.951014854236884 0.309145187607375
  outer loop
    vertex -13.158 -12.7550742711844 -5.29372593803688
    vertex -8.5 -12.1929857331868 -6.47176038617424
    vertex -13.158 -12.1929857331868 -6.47176038617424
  endloop
endfacet
facet normal 0.0 0.838597146637359 0.544752077234846
  outer loop
    vertex -8.5 -12.1929857331868 -6.47176038617424
    vertex -13.158 -12.7550742711844 -5.29372593803688
    vertex -8.5 -12.7550742711844 -5.29372593803688
  endloop
endfacet
facet normal 0.0 0.838597146637359 0.544752077234846
  outer loop
    vertex -13.158 -12.1929857331868 -6.47176038617424
    vertex -8.5 -11.345152146709 -7.46417506522068
    vertex -13.158 -11.345152146709 -7.46417506522068
  endloop
endfacet
facet normal 0.0 0.669030429341808 0.743235013044135
  outer loop
    vertex -8.5 -11.345152146709 -7.46417506522068
    vertex -13.158 -12.1929857331868 -6.47176038617424
    vertex -8.5 -12.1929857331868 -6.47176038617424
  endloop
endfacet
facet normal 0.0 0.669030429341808 0.743235013044135
  outer loop
    vertex -8.5 -11.345152146709 -7.46417506522068
    vertex -13.158 -10.2693519695584 -8.203338554842
    vertex -13.158 -11.345152146709 -7.46417506522068
  endloop
endfacet
facet normal 0.0 0.453870393911674 0.891067710968399
  outer loop
    vertex -13.158 -10.2693519695584 -8.203338554842
    vertex -8.5 -11.345152146709 -7.46417506522068
    vertex -8.5 -10.2693519695584 -8.203338554842
  endloop
endfacet
facet normal 0.0 0.453870393911674 0.891067710968399
  outer loop
    vertex -8.5 -10.2693519695584 -8.203338554842
    vertex -13.158 -9.03889920596373 -8.63887808474593
    vertex -13.158 -10.2693519695584 -8.203338554842
  endloop
endfacet
facet normal 0.0 0.207779841192748 0.978175616949184
  outer loop
    vertex -13.158 -9.03889920596373 -8.63887808474593
    vertex -8.5 -10.2693519695584 -8.203338554842
    vertex -8.5 -9.03889920596373 -8.63887808474593
  endloop
endfacet
facet normal 0.0 0.207779841192748 0.978175616949184
  outer loop
    vertex -8.5 -9.03889920596373 -8.63887808474593
    vertex -13.158 -7.73764717834479 -8.74111235573261
    vertex -13.158 -9.03889920596373 -8.63887808474593
  endloop
endfacet
facet normal 0.0 -0.0524705643310406 0.99862247114652
  outer loop
    vertex -13.158 -7.73764717834479 -8.74111235573261
    vertex -8.5 -9.03889920596373 -8.63887808474593
    vertex -8.5 -7.73764717834479 -8.74111235573261
  endloop
endfacet
facet normal 0.0 -0.0524705643310406 0.99862247114652
  outer loop
    vertex -8.5 -7.73764717834479 -8.74111235573261
    vertex -13.158 -6.45427406196311 -8.50307427118442
    vertex -13.158 -7.73764717834479 -8.74111235573261
  endloop
endfacet
facet normal 0.0 -0.309145187607375 0.951014854236884
  outer loop
    vertex -13.158 -6.45427406196311 -8.50307427118442
    vertex -8.5 -7.73764717834479 -8.74111235573261
    vertex -8.5 -6.45427406196311 -8.50307427118442
  endloop
endfacet
facet normal 0.0 -0.309145187607375 0.951014854236884
  outer loop
    vertex -8.5 -6.45427406196311 -8.50307427118442
    vertex -13.158 -5.27623961382576 -7.9409857331868
    vertex -13.158 -6.45427406196311 -8.50307427118442
  endloop
endfacet
facet normal 0.0 -0.544752077234846 0.838597146637359
  outer loop
    vertex -13.158 -5.27623961382576 -7.9409857331868
    vertex -8.5 -6.45427406196311 -8.50307427118442
    vertex -8.5 -5.27623961382576 -7.9409857331868
  endloop
endfacet
facet normal 0.0 -0.544752077234846 0.838597146637359
  outer loop
    vertex -8.5 -5.27623961382576 -7.9409857331868
    vertex -13.158 -4.28382493477932 -7.09315214670905
    vertex -13.158 -5.27623961382576 -7.9409857331868
  endloop
endfacet
facet normal 0.0 -0.743235013044135 0.669030429341809
  outer loop
    vertex -13.158 -4.28382493477932 -7.09315214670905
    vertex -8.5 -5.27623961382576 -7.9409857331868
    vertex -8.5 -4.28382493477932 -7.09315214670905
  endloop
endfacet
facet normal 0.0 -0.891067710968399 0.453870393911673
  outer loop
    vertex -8.5 -3.544661445158 -6.01735196955837
    vertex -13.158 -4.28382493477932 -7.09315214670905
    vertex -8.5 -4.28382493477932 -7.09315214670905
  endloop
endfacet
facet normal 0.0 -0.743235013044135 0.669030429341809
  outer loop
    vertex -13.158 -4.28382493477932 -7.09315214670905
    vertex -8.5 -3.544661445158 -6.01735196955837
    vertex -13.158 -3.544661445158 -6.01735196955837
  endloop
endfacet
facet normal 0.999998530617883 -0.00171374167576929 4.30295597036155e-005
  outer loop
    vertex -17.485797464575 -11.2999945713854 -9.457
    vertex -17.5 -20.5 7.504
    vertex -17.5 -20.5 -9.457
  endloop
endfacet
facet normal 0.999998530617883 -0.00171374167576929 4.30295597036155e-005
  outer loop
    vertex -17.5 -20.5 7.504
    vertex -17.485797464575 -11.2999945713854 -9.457
    vertex -17.489 -11.3 7.504
  endloop
endfacet
facet normal 0.000590717545601597 0.999999825526334 -2.88743912265204e-007
  outer loop
    vertex -18.4889998105192 -4.69940928241323 -9.45682675377035
    vertex -17.478 -4.69999999999999 7.504
    vertex -17.489 -4.69999999999999 -9.457
  endloop
endfacet
facet normal 0.000590717545601597 0.999999825526334 -2.88743912265204e-007
  outer loop
    vertex -17.478 -4.69999999999999 7.504
    vertex -18.4889998105192 -4.69940928241323 -9.45682675377035
    vertex -18.4779998105192 -4.69940928241323 7.50417324622965
  endloop
endfacet
facet normal -0.000590717651981263 -0.99999982552626 -3.25293629456044e-007
  outer loop
    vertex -17.489 -11.3 7.504
    vertex -18.4857972750942 -11.2994038537987 -9.45682675377035
    vertex -17.485797464575 -11.2999945713854 -9.457
  endloop
endfacet
facet normal -0.000590717651981263 -0.99999982552626 -3.25293629456044e-007
  outer loop
    vertex -18.4857972750942 -11.2994038537987 -9.45682675377035
    vertex -17.489 -11.3 7.504
    vertex -18.4889998105192 -11.2994092824132 7.50417324622965
  endloop
endfacet
facet normal -0.0 -0.0 1.0
  outer loop
    vertex -8.5 4.5 0.0
    vertex 11.5 9.0 0.0
    vertex -8.70780706405342 9.0 0.0
  endloop
endfacet
facet normal -0.0 -0.0 1.0
  outer loop
    vertex 11.5 9.0 0.0
    vertex -8.5 4.5 0.0
    vertex 11.5 4.5 0.0
  endloop
endfacet
facet normal 0.0 -1.0 0.0
  outer loop
    vertex 11.5 9.0 0.0
    vertex 6.875 9.0 4.41746997833252
    vertex -8.70780706405342 9.0 0.0
  endloop
endfacet
facet normal 0.0 -1.0 0.0
  outer loop
    vertex 6.875 9.0 4.41746997833252
    vertex 11.5 9.0 0.0
    vertex 11.5 9.0 7.5
  endloop
endfacet
facet normal 0.0 -1.0 0.0
  outer loop
    vertex -8.70780706405342 9.0 0.0
    vertex 6.875 9.0 4.41746997833252
    vertex 6.25 9.0 4.25
  endloop
endfacet
facet normal 0.0 -1.0 0.0
  outer loop
    vertex -8.70780706405342 9.0 0.0
    vertex 6.25 9.0 4.25
    vertex -17.5 9.0 0.0
  endloop
endfacet
facet normal 0.0 -1.0 0.0
  outer loop
    vertex 6.875 9.0 4.41746997833252
    vertex 11.5 9.0 7.5
    vertex 7.33253002166748 9.0 4.875
  endloop
endfacet
facet normal 0.0 -1.0 0.0
  outer loop
    vertex 7.33253002166748 9.0 4.875
    vertex 11.5 9.0 7.5
    vertex 7.5 9.0 5.5
  endloop
endfacet
facet normal 0.0 -1.0 0.0
  outer loop
    vertex 7.5 9.0 5.5
    vertex 11.5 9.0 7.5
    vertex 7.33253002166748 9.0 6.125
  endloop
endfacet
facet normal 0.0 -1.0 0.0
  outer loop
    vertex 7.33253002166748 9.0 6.125
    vertex 11.5 9.0 7.5
    vertex 6.875 9.0 6.58253002166748
  endloop
endfacet
facet normal 0.0 -1.0 0.0
  outer loop
    vertex 6.875 9.0 6.58253002166748
    vertex 11.5 9.0 7.5
    vertex 6.25 9.0 6.75
  endloop
endfacet
facet normal 0.0 -1.0 0.0
  outer loop
    vertex 6.25 9.0 6.75
    vertex 11.5 9.0 7.5
    vertex -3.25 9.0 6.75
  endloop
endfacet
facet normal 0.0 -1.0 0.0
  outer loop
    vertex -17.5 9.0 0.0
    vertex -3.25 9.0 4.25
    vertex -17.5 9.0 7.504
  endloop
endfacet
facet normal 0.0 -1.0 0.0
  outer loop
    vertex -3.25 9.0 4.25
    vertex -17.5 9.0 0.0
    vertex 6.25 9.0 4.25
  endloop
endfacet
facet normal 0.0 -1.0 0.0
  outer loop
    vertex -17.5 9.0 7.504
    vertex -3.25 9.0 4.25
    vertex -3.875 9.0 4.41746997833252
  endloop
endfacet
facet normal 0.0 -1.0 0.0
  outer loop
    vertex -17.5 9.0 7.504
    vertex -3.875 9.0 4.41746997833252
    vertex -4.33253002166748 9.0 4.875
  endloop
endfacet
facet normal 0.0 -1.0 0.0
  outer loop
    vertex -17.5 9.0 7.504
    vertex -4.33253002166748 9.0 4.875
    vertex -4.5 9.0 5.5
  endloop
endfacet
facet normal 0.0 -1.0 0.0
  outer loop
    vertex -17.5 9.0 7.504
    vertex -4.5 9.0 5.5
    vertex -4.33253002166748 9.0 6.125
  endloop
endfacet
facet normal 0.0 -1.0 0.0
  outer loop
    vertex -17.5 9.0 7.504
    vertex -4.33253002166748 9.0 6.125
    vertex -3.875 9.0 6.58253002166748
  endloop
endfacet
facet normal 0.0 -1.0 0.0
  outer loop
    vertex -17.5 9.0 7.504
    vertex -3.875 9.0 6.58253002166748
    vertex -3.25 9.0 6.75
  endloop
endfacet
facet normal 0.0 -1.0 0.0
  outer loop
    vertex -17.5 9.0 7.504
    vertex -3.25 9.0 6.75
    vertex 11.5 9.0 7.5
  endloop
endfacet
facet normal 0.0 -1.0 0.0
  outer loop
    vertex 5.625 9.0 4.41746997833252
    vertex -3.25 9.0 4.25
    vertex 6.25 9.0 4.25
  endloop
endfacet
facet normal 0.0 -1.0 0.0
  outer loop
    vertex -3.25 9.0 4.25
    vertex 5.625 9.0 4.41746997833252
    vertex -2.625 9.0 4.41746997833252
  endloop
endfacet
facet normal 0.0 -1.0 0.0
  outer loop
    vertex -2.625 9.0 4.41746997833252
    vertex 5.625 9.0 4.41746997833252
    vertex 5.16746997833252 9.0 4.875
  endloop
endfacet
facet normal 0.0 -1.0 0.0
  outer loop
    vertex -2.625 9.0 4.41746997833252
    vertex 5.16746997833252 9.0 4.875
    vertex -2.16746997833252 9.0 4.875
  endloop
endfacet
facet normal 0.0 -1.0 0.0
  outer loop
    vertex -2.16746997833252 9.0 4.875
    vertex 5.16746997833252 9.0 4.875
    vertex 5.0 9.0 5.5
  endloop
endfacet
facet normal 0.0 -1.0 0.0
  outer loop
    vertex -2.16746997833252 9.0 4.875
    vertex 5.0 9.0 5.5
    vertex -2.0 9.0 5.5
  endloop
endfacet
facet normal 0.0 -1.0 0.0
  outer loop
    vertex -2.0 9.0 5.5
    vertex 5.0 9.0 5.5
    vertex 5.16746997833252 9.0 6.125
  endloop
endfacet
facet normal 0.0 -1.0 0.0
  outer loop
    vertex -2.0 9.0 5.5
    vertex 5.16746997833252 9.0 6.125
    vertex -2.16746997833252 9.0 6.125
  endloop
endfacet
facet normal 0.0 -1.0 0.0
  outer loop
    vertex -2.16746997833252 9.0 6.125
    vertex 5.16746997833252 9.0 6.125
    vertex 5.625 9.0 6.58253002166748
  endloop
endfacet
facet normal 0.0 -1.0 0.0
  outer loop
    vertex -2.16746997833252 9.0 6.125
    vertex 5.625 9.0 6.58253002166748
    vertex -2.625 9.0 6.58253002166748
  endloop
endfacet
facet normal 0.0 -1.0 0.0
  outer loop
    vertex -2.625 9.0 6.58253002166748
    vertex 5.625 9.0 6.58253002166748
    vertex 6.25 9.0 6.75
  endloop
endfacet
facet normal 0.0 -1.0 0.0
  outer loop
    vertex -2.625 9.0 6.58253002166748
    vertex 6.25 9.0 6.75
    vertex -3.25 9.0 6.75
  endloop
endfacet
facet normal 0.000114441903495858 7.64102205006379e-005 0.999999990532264
  outer loop
    vertex -8.5 -20.5 7.504
    vertex -17.489 -11.3 7.504
    vertex -17.5 -20.5 7.504
  endloop
endfacet
facet normal 0.000114441903495858 7.64102205006379e-005 0.999999990532264
  outer loop
    vertex -17.489 -11.3 7.504
    vertex -8.5 -20.5 7.504
    vertex -17.478 -4.69999999999999 7.504
  endloop
endfacet
facet normal 0.000114441903495858 7.64102205006379e-005 0.999999990532264
  outer loop
    vertex -17.5 9.0 7.504
    vertex -8.5 4.5 7.5
    vertex 11.5 9.0 7.5
  endloop
endfacet
facet normal 0.000114441903495858 7.64102205006379e-005 0.999999990532264
  outer loop
    vertex -8.5 4.5 7.5
    vertex -17.5 9.0 7.504
    vertex -17.478 -4.69999999999999 7.504
  endloop
endfacet
facet normal 0.000114441903495858 7.64102205006379e-005 0.999999990532264
  outer loop
    vertex -8.5 4.5 7.5
    vertex -17.478 -4.69999999999999 7.504
    vertex -8.5 -20.5 7.504
  endloop
endfacet
facet normal 0.000114441903495858 7.64102205006379e-005 0.999999990532264
  outer loop
    vertex 11.5 9.0 7.5
    vertex -8.5 4.5 7.5
    vertex 11.5 4.5 7.5
  endloop
endfacet
facet normal 0.000114441903495858 7.64102205006379e-005 0.999999990532264
  outer loop
    vertex -17.489 -11.3 7.504
    vertex -18.4779998105192 -4.69940928241323 7.50417324622965
    vertex -18.4889998105192 -11.2994092824132 7.50417324622965
  endloop
endfacet
facet normal 0.000114441903495858 7.64102205006379e-005 0.999999990532264
  outer loop
    vertex -18.4779998105192 -4.69940928241323 7.50417324622965
    vertex -17.489 -11.3 7.504
    vertex -17.478 -4.69999999999999 7.504
  endloop
endfacet
facet normal -7.87330239792098e-006 -6.05720899823484e-011 -0.999999999969006
  outer loop
    vertex -8.5 4.5 -9.457
    vertex -17.489 -4.69999999999999 -9.457
    vertex -17.5 4.5 -9.457
  endloop
endfacet
facet normal -7.87330239792098e-006 -6.05720899823484e-011 -0.999999999969006
  outer loop
    vertex -17.489 -4.69999999999999 -9.457
    vertex -8.5 4.5 -9.457
    vertex -17.485797464575 -11.2999945713854 -9.457
  endloop
endfacet
facet normal -7.87330239792098e-006 -6.05720899823484e-011 -0.999999999969006
  outer loop
    vertex -17.485797464575 -11.2999945713854 -9.457
    vertex -8.5 -20.5 -9.457
    vertex -17.5 -20.5 -9.457
  endloop
endfacet
facet normal -7.87330239792098e-006 -6.05720899823484e-011 -0.999999999969006
  outer loop
    vertex -8.5 -20.5 -9.457
    vertex -17.485797464575 -11.2999945713854 -9.457
    vertex -8.5 4.5 -9.457
  endloop
endfacet
facet normal -7.87330239792098e-006 -6.05720899823484e-011 -0.999999999969006
  outer loop
    vertex -17.489 -4.69999999999999 -9.457
    vertex -18.4857972750942 -11.2994038537987 -9.45682675377035
    vertex -18.4889998105192 -4.69940928241323 -9.45682675377035
  endloop
endfacet
facet normal -7.87330239792098e-006 -6.05720899823484e-011 -0.999999999969006
  outer loop
    vertex -18.4857972750942 -11.2994038537987 -9.45682675377035
    vertex -17.489 -4.69999999999999 -9.457
    vertex -17.485797464575 -11.2999945713854 -9.457
  endloop
endfacet
facet normal 5.75652270831707e-018 -0.902984027195462 0.429674116779061
  outer loop
    vertex -8.70780706405342 9.0 0.0
    vertex -17.5 4.5 -9.457
    vertex -8.5 4.5 -9.457
  endloop
endfacet
facet normal 5.75652270831707e-018 -0.902984027195462 0.429674116779061
  outer loop
    vertex -17.5 4.5 -9.457
    vertex -8.70780706405342 9.0 0.0
    vertex -17.5 9.0 0.0
  endloop
endfacet
facet normal 0.0 -0.471907364177836 0.881648138224501
  outer loop
    vertex -13.158 -6.79663622134651 -5.99620275247248
    vertex -18.4882505757027 -6.25576215818601 -5.60814363724529
    vertex -18.4882505757027 -6.79663622134651 -5.99620275247248
  endloop
endfacet
facet normal 0.0 -0.684014839927052 0.729468093037364
  outer loop
    vertex -18.4882505757027 -6.25576215818601 -5.60814363724529
    vertex -13.158 -6.79663622134651 -5.99620275247248
    vertex -13.158 -6.25576215818601 -5.60814363724529
  endloop
endfacet
facet normal 0.0 -0.84950783472321 0.527576002812754
  outer loop
    vertex -13.158 -5.8337550214558 -5.09331880717253
    vertex -18.4882505757027 -6.25576215818601 -5.60814363724529
    vertex -13.158 -6.25576215818601 -5.60814363724529
  endloop
endfacet
facet normal 0.0 -0.684014839927052 0.729468093037364
  outer loop
    vertex -18.4882505757027 -6.25576215818601 -5.60814363724529
    vertex -13.158 -5.8337550214558 -5.09331880717253
    vertex -18.4882505757027 -5.8337550214558 -5.09331880717253
  endloop
endfacet
facet normal 0.0 -0.957108274461056 0.289730479857021
  outer loop
    vertex -13.158 -5.5593739001243 -4.48681272363541
    vertex -18.4882505757027 -5.8337550214558 -5.09331880717253
    vertex -13.158 -5.8337550214558 -5.09331880717253
  endloop
endfacet
facet normal 0.0 -0.84950783472321 0.527576002812754
  outer loop
    vertex -18.4882505757027 -5.8337550214558 -5.09331880717253
    vertex -13.158 -5.5593739001243 -4.48681272363541
    vertex -18.4882505757027 -5.5593739001243 -4.48681272363541
  endloop
endfacet
facet normal 0.0 -0.999483366990589 0.03214030350129
  outer loop
    vertex -13.158 -5.45131741417399 -3.8299577739283
    vertex -18.4882505757027 -5.5593739001243 -4.48681272363541
    vertex -13.158 -5.5593739001243 -4.48681272363541
  endloop
endfacet
facet normal 0.0 -0.957108274461056 0.289730479857021
  outer loop
    vertex -18.4882505757027 -5.5593739001243 -4.48681272363541
    vertex -13.158 -5.45131741417399 -3.8299577739283
    vertex -18.4882505757027 -5.45131741417399 -3.8299577739283
  endloop
endfacet
facet normal 0.0 -0.973745319784074 -0.227640181423692
  outer loop
    vertex -13.158 -5.5169494345506 -3.16751753736959
    vertex -18.4882505757027 -5.45131741417399 -3.8299577739283
    vertex -13.158 -5.45131741417399 -3.8299577739283
  endloop
endfacet
facet normal 0.0 -0.999483366990589 0.03214030350129
  outer loop
    vertex -18.4882505757027 -5.45131741417399 -3.8299577739283
    vertex -13.158 -5.5169494345506 -3.16751753736959
    vertex -18.4882505757027 -5.5169494345506 -3.16751753736959
  endloop
endfacet
facet normal 0.0 -0.8816481382245 -0.471907364177836
  outer loop
    vertex -13.158 -5.75179724752752 -2.54463622134653
    vertex -18.4882505757027 -5.5169494345506 -3.16751753736959
    vertex -13.158 -5.5169494345506 -3.16751753736959
  endloop
endfacet
facet normal 0.0 -0.973745319784074 -0.227640181423692
  outer loop
    vertex -18.4882505757027 -5.5169494345506 -3.16751753736959
    vertex -13.158 -5.75179724752752 -2.54463622134653
    vertex -18.4882505757027 -5.75179724752752 -2.54463622134653
  endloop
endfacet
facet normal 0.0 -0.729468093037364 -0.684014839927052
  outer loop
    vertex -13.158 -6.13985636275471 -2.00376215818602
    vertex -18.4882505757027 -5.75179724752752 -2.54463622134653
    vertex -13.158 -5.75179724752752 -2.54463622134653
  endloop
endfacet
facet normal 0.0 -0.8816481382245 -0.471907364177836
  outer loop
    vertex -18.4882505757027 -5.75179724752752 -2.54463622134653
    vertex -13.158 -6.13985636275471 -2.00376215818602
    vertex -18.4882505757027 -6.13985636275471 -2.00376215818602
  endloop
endfacet
facet normal 0.0 -0.729468093037364 -0.684014839927052
  outer loop
    vertex -13.158 -6.13985636275471 -2.00376215818602
    vertex -18.4882505757027 -6.65468119282747 -1.58175502145582
    vertex -18.4882505757027 -6.13985636275471 -2.00376215818602
  endloop
endfacet
facet normal 0.0 -0.527576002812754 -0.84950783472321
  outer loop
    vertex -18.4882505757027 -6.65468119282747 -1.58175502145582
    vertex -13.158 -6.13985636275471 -2.00376215818602
    vertex -13.158 -6.65468119282747 -1.58175502145582
  endloop
endfacet
facet normal 0.0 -0.527576002812754 -0.84950783472321
  outer loop
    vertex -13.158 -6.65468119282747 -1.58175502145582
    vertex -18.4882505757027 -7.26118727636459 -1.30737390012432
    vertex -18.4882505757027 -6.65468119282747 -1.58175502145582
  endloop
endfacet
facet normal 0.0 -0.289730479857022 -0.957108274461056
  outer loop
    vertex -18.4882505757027 -7.26118727636459 -1.30737390012432
    vertex -13.158 -6.65468119282747 -1.58175502145582
    vertex -13.158 -7.26118727636459 -1.30737390012432
  endloop
endfacet
facet normal 0.0 -0.289730479857022 -0.957108274461056
  outer loop
    vertex -13.158 -7.26118727636459 -1.30737390012432
    vertex -18.4882505757027 -7.9180422260717 -1.19931741417401
    vertex -18.4882505757027 -7.26118727636459 -1.30737390012432
  endloop
endfacet
facet normal 0.0 -0.0321403035012904 -0.999483366990589
  outer loop
    vertex -18.4882505757027 -7.9180422260717 -1.19931741417401
    vertex -13.158 -7.26118727636459 -1.30737390012432
    vertex -13.158 -7.9180422260717 -1.19931741417401
  endloop
endfacet
facet normal 0.0 -0.0321403035012904 -0.999483366990589
  outer loop
    vertex -13.158 -7.9180422260717 -1.19931741417401
    vertex -18.4882505757027 -8.58048246263041 -1.26494943455062
    vertex -18.4882505757027 -7.9180422260717 -1.19931741417401
  endloop
endfacet
facet normal 0.0 0.227640181423691 -0.973745319784074
  outer loop
    vertex -18.4882505757027 -8.58048246263041 -1.26494943455062
    vertex -13.158 -7.9180422260717 -1.19931741417401
    vertex -13.158 -8.58048246263041 -1.26494943455062
  endloop
endfacet
facet normal 0.0 0.227640181423691 -0.973745319784074
  outer loop
    vertex -13.158 -8.58048246263041 -1.26494943455062
    vertex -18.4882505757027 -9.20336377865347 -1.49979724752753
    vertex -18.4882505757027 -8.58048246263041 -1.26494943455062
  endloop
endfacet
facet normal 0.0 0.471907364177836 -0.881648138224501
  outer loop
    vertex -18.4882505757027 -9.20336377865347 -1.49979724752753
    vertex -13.158 -8.58048246263041 -1.26494943455062
    vertex -13.158 -9.20336377865347 -1.49979724752753
  endloop
endfacet
facet normal 0.0 0.471907364177836 -0.881648138224501
  outer loop
    vertex -13.158 -9.20336377865347 -1.49979724752753
    vertex -18.4882505757027 -9.74423784181398 -1.88785636275473
    vertex -18.4882505757027 -9.20336377865347 -1.49979724752753
  endloop
endfacet
facet normal 0.0 0.684014839927053 -0.729468093037364
  outer loop
    vertex -18.4882505757027 -9.74423784181398 -1.88785636275473
    vertex -13.158 -9.20336377865347 -1.49979724752753
    vertex -13.158 -9.74423784181398 -1.88785636275473
  endloop
endfacet
facet normal 0.0 0.684014839927053 -0.729468093037364
  outer loop
    vertex -18.4882505757027 -9.74423784181398 -1.88785636275473
    vertex -13.158 -10.1662449785442 -2.40268119282749
    vertex -18.4882505757027 -10.1662449785442 -2.40268119282749
  endloop
endfacet
facet normal 0.0 0.849507834723211 -0.527576002812753
  outer loop
    vertex -13.158 -10.1662449785442 -2.40268119282749
    vertex -18.4882505757027 -9.74423784181398 -1.88785636275473
    vertex -13.158 -9.74423784181398 -1.88785636275473
  endloop
endfacet
facet normal 0.0 0.849507834723211 -0.527576002812753
  outer loop
    vertex -18.4882505757027 -10.1662449785442 -2.40268119282749
    vertex -13.158 -10.4406260998757 -3.0091872763646
    vertex -18.4882505757027 -10.4406260998757 -3.0091872763646
  endloop
endfacet
facet normal 0.0 0.957108274461056 -0.289730479857022
  outer loop
    vertex -13.158 -10.4406260998757 -3.0091872763646
    vertex -18.4882505757027 -10.1662449785442 -2.40268119282749
    vertex -13.158 -10.1662449785442 -2.40268119282749
  endloop
endfacet
facet normal 0.0 0.957108274461056 -0.289730479857022
  outer loop
    vertex -18.4882505757027 -10.4406260998757 -3.0091872763646
    vertex -13.158 -10.548682585826 -3.66604222607172
    vertex -18.4882505757027 -10.548682585826 -3.66604222607172
  endloop
endfacet
facet normal 0.0 0.999483366990589 -0.0321403035012891
  outer loop
    vertex -13.158 -10.548682585826 -3.66604222607172
    vertex -18.4882505757027 -10.4406260998757 -3.0091872763646
    vertex -13.158 -10.4406260998757 -3.0091872763646
  endloop
endfacet
facet normal 0.0 0.999483366990589 -0.0321403035012891
  outer loop
    vertex -18.4882505757027 -10.548682585826 -3.66604222607172
    vertex -13.158 -10.4830505654494 -4.32848246263042
    vertex -18.4882505757027 -10.4830505654494 -4.32848246263042
  endloop
endfacet
facet normal 0.0 0.973745319784074 0.227640181423692
  outer loop
    vertex -13.158 -10.4830505654494 -4.32848246263042
    vertex -18.4882505757027 -10.548682585826 -3.66604222607172
    vertex -13.158 -10.548682585826 -3.66604222607172
  endloop
endfacet
facet normal 0.0 0.973745319784074 0.227640181423692
  outer loop
    vertex -18.4882505757027 -10.4830505654494 -4.32848246263042
    vertex -13.158 -10.2482027524725 -4.95136377865349
    vertex -18.4882505757027 -10.2482027524725 -4.95136377865349
  endloop
endfacet
facet normal 0.0 0.881648138224501 0.471907364177835
  outer loop
    vertex -13.158 -10.2482027524725 -4.95136377865349
    vertex -18.4882505757027 -10.4830505654494 -4.32848246263042
    vertex -13.158 -10.4830505654494 -4.32848246263042
  endloop
endfacet
facet normal 0.0 0.881648138224501 0.471907364177835
  outer loop
    vertex -18.4882505757027 -10.2482027524725 -4.95136377865349
    vertex -13.158 -9.86014363724527 -5.49223784181399
    vertex -18.4882505757027 -9.86014363724527 -5.49223784181399
  endloop
endfacet
facet normal 0.0 0.729468093037364 0.684014839927053
  outer loop
    vertex -13.158 -9.86014363724527 -5.49223784181399
    vertex -18.4882505757027 -10.2482027524725 -4.95136377865349
    vertex -13.158 -10.2482027524725 -4.95136377865349
  endloop
endfacet
facet normal 0.0 0.729468093037364 0.684014839927053
  outer loop
    vertex -13.158 -9.86014363724527 -5.49223784181399
    vertex -18.4882505757027 -9.34531880717251 -5.9142449785442
    vertex -18.4882505757027 -9.86014363724527 -5.49223784181399
  endloop
endfacet
facet normal 0.0 0.527576002812753 0.849507834723211
  outer loop
    vertex -18.4882505757027 -9.34531880717251 -5.9142449785442
    vertex -13.158 -9.86014363724527 -5.49223784181399
    vertex -13.158 -9.34531880717251 -5.9142449785442
  endloop
endfacet
facet normal 0.0 0.527576002812753 0.849507834723211
  outer loop
    vertex -13.158 -9.34531880717251 -5.9142449785442
    vertex -18.4882505757027 -8.73881272363539 -6.1886260998757
    vertex -18.4882505757027 -9.34531880717251 -5.9142449785442
  endloop
endfacet
facet normal 0.0 0.289730479857021 0.957108274461056
  outer loop
    vertex -18.4882505757027 -8.73881272363539 -6.1886260998757
    vertex -13.158 -9.34531880717251 -5.9142449785442
    vertex -13.158 -8.73881272363539 -6.1886260998757
  endloop
endfacet
facet normal 0.0 0.289730479857021 0.957108274461056
  outer loop
    vertex -13.158 -8.73881272363539 -6.1886260998757
    vertex -18.4882505757027 -8.08195777392828 -6.29668258582601
    vertex -18.4882505757027 -8.73881272363539 -6.1886260998757
  endloop
endfacet
facet normal 0.0 0.0321403035012894 0.999483366990589
  outer loop
    vertex -18.4882505757027 -8.08195777392828 -6.29668258582601
    vertex -13.158 -8.73881272363539 -6.1886260998757
    vertex -13.158 -8.08195777392828 -6.29668258582601
  endloop
endfacet
facet normal 0.0 0.0321403035012894 0.999483366990589
  outer loop
    vertex -13.158 -8.08195777392828 -6.29668258582601
    vertex -18.4882505757027 -7.41951753736958 -6.2310505654494
    vertex -18.4882505757027 -8.08195777392828 -6.29668258582601
  endloop
endfacet
facet normal 0.0 -0.227640181423692 0.973745319784074
  outer loop
    vertex -18.4882505757027 -7.41951753736958 -6.2310505654494
    vertex -13.158 -8.08195777392828 -6.29668258582601
    vertex -13.158 -7.41951753736958 -6.2310505654494
  endloop
endfacet
facet normal 0.0 -0.227640181423692 0.973745319784074
  outer loop
    vertex -13.158 -7.41951753736958 -6.2310505654494
    vertex -18.4882505757027 -6.79663622134651 -5.99620275247248
    vertex -18.4882505757027 -7.41951753736958 -6.2310505654494
  endloop
endfacet
facet normal 0.0 -0.471907364177836 0.881648138224501
  outer loop
    vertex -18.4882505757027 -6.79663622134651 -5.99620275247248
    vertex -13.158 -7.41951753736958 -6.2310505654494
    vertex -13.158 -6.79663622134651 -5.99620275247248
  endloop
endfacet
facet normal -0.999999799107488 0.000590717580019321 0.000229864578012474
  outer loop
    vertex -18.4889998105192 -11.2994092824132 7.50417324622965
    vertex -18.4882505757027 -10.548682585826 -3.66604222607172
    vertex -18.4857972750942 -11.2994038537987 -9.45682675377035
  endloop
endfacet
facet normal -0.999999799107488 0.000590717580019321 0.000229864578012474
  outer loop
    vertex -18.4882505757027 -10.548682585826 -3.66604222607172
    vertex -18.4889998105192 -11.2994092824132 7.50417324622965
    vertex -18.4882505757027 -10.4406260998757 -3.0091872763646
  endloop
endfacet
facet normal -0.999999799107488 0.000590717580019321 0.000229864578012474
  outer loop
    vertex -18.4882505757027 -10.4406260998757 -3.0091872763646
    vertex -18.4889998105192 -11.2994092824132 7.50417324622965
    vertex -18.4882505757027 -10.1662449785442 -2.40268119282749
  endloop
endfacet
facet normal -0.999999799107488 0.000590717580019321 0.000229864578012474
  outer loop
    vertex -18.4882505757027 -10.1662449785442 -2.40268119282749
    vertex -18.4889998105192 -11.2994092824132 7.50417324622965
    vertex -18.4779998105192 -4.69940928241323 7.50417324622965
  endloop
endfacet
facet normal -0.999999799107488 0.000590717580019321 0.000229864578012474
  outer loop
    vertex -18.4882505757027 -10.1662449785442 -2.40268119282749
    vertex -18.4779998105192 -4.69940928241323 7.50417324622965
    vertex -18.4882505757027 -9.74423784181398 -1.88785636275473
  endloop
endfacet
facet normal -0.999999799107488 0.000590717580019321 0.000229864578012474
  outer loop
    vertex -18.4882505757027 -9.74423784181398 -1.88785636275473
    vertex -18.4779998105192 -4.69940928241323 7.50417324622965
    vertex -18.4882505757027 -9.20336377865347 -1.49979724752753
  endloop
endfacet
facet normal -0.999999799107488 0.000590717580019321 0.000229864578012474
  outer loop
    vertex -18.4882505757027 -9.20336377865347 -1.49979724752753
    vertex -18.4779998105192 -4.69940928241323 7.50417324622965
    vertex -18.4882505757027 -8.58048246263041 -1.26494943455062
  endloop
endfacet
facet normal -0.999999799107488 0.000590717580019321 0.000229864578012474
  outer loop
    vertex -18.4882505757027 -8.58048246263041 -1.26494943455062
    vertex -18.4779998105192 -4.69940928241323 7.50417324622965
    vertex -18.4882505757027 -7.9180422260717 -1.19931741417401
  endloop
endfacet
facet normal -0.999999799107488 0.000590717580019321 0.000229864578012474
  outer loop
    vertex -18.4882505757027 -7.9180422260717 -1.19931741417401
    vertex -18.4779998105192 -4.69940928241323 7.50417324622965
    vertex -18.4882505757027 -7.26118727636459 -1.30737390012432
  endloop
endfacet
facet normal -0.999999799107488 0.000590717580019321 0.000229864578012474
  outer loop
    vertex -18.4882505757027 -7.26118727636459 -1.30737390012432
    vertex -18.4779998105192 -4.69940928241323 7.50417324622965
    vertex -18.4882505757027 -6.65468119282747 -1.58175502145582
  endloop
endfacet
facet normal -0.999999799107488 0.000590717580019321 0.000229864578012474
  outer loop
    vertex -18.4882505757027 -6.65468119282747 -1.58175502145582
    vertex -18.4779998105192 -4.69940928241323 7.50417324622965
    vertex -18.4882505757027 -6.13985636275471 -2.00376215818602
  endloop
endfacet
facet normal -0.999999799107488 0.000590717580019321 0.000229864578012474
  outer loop
    vertex -18.4882505757027 -6.13985636275471 -2.00376215818602
    vertex -18.4779998105192 -4.69940928241323 7.50417324622965
    vertex -18.4882505757027 -5.75179724752752 -2.54463622134653
  endloop
endfacet
facet normal -0.999999799107488 0.000590717580019321 0.000229864578012474
  outer loop
    vertex -18.4882505757027 -5.75179724752752 -2.54463622134653
    vertex -18.4779998105192 -4.69940928241323 7.50417324622965
    vertex -18.4882505757027 -5.5169494345506 -3.16751753736959
  endloop
endfacet
facet normal -0.999999799107488 0.000590717580019321 0.000229864578012474
  outer loop
    vertex -18.4882505757027 -5.5169494345506 -3.16751753736959
    vertex -18.4779998105192 -4.69940928241323 7.50417324622965
    vertex -18.4882505757027 -5.45131741417399 -3.8299577739283
  endloop
endfacet
facet normal -0.999999799107488 0.000590717580019321 0.000229864578012474
  outer loop
    vertex -18.4857972750942 -11.2994038537987 -9.45682675377035
    vertex -18.4882505757027 -9.34531880717251 -5.9142449785442
    vertex -18.4889998105192 -4.69940928241323 -9.45682675377035
  endloop
endfacet
facet normal -0.999999799107488 0.000590717580019321 0.000229864578012474
  outer loop
    vertex -18.4882505757027 -9.34531880717251 -5.9142449785442
    vertex -18.4857972750942 -11.2994038537987 -9.45682675377035
    vertex -18.4882505757027 -9.86014363724527 -5.49223784181399
  endloop
endfacet
facet normal -0.999999799107488 0.000590717580019321 0.000229864578012474
  outer loop
    vertex -18.4882505757027 -9.86014363724527 -5.49223784181399
    vertex -18.4857972750942 -11.2994038537987 -9.45682675377035
    vertex -18.4882505757027 -10.2482027524725 -4.95136377865349
  endloop
endfacet
facet normal -0.999999799107488 0.000590717580019321 0.000229864578012474
  outer loop
    vertex -18.4882505757027 -10.2482027524725 -4.95136377865349
    vertex -18.4857972750942 -11.2994038537987 -9.45682675377035
    vertex -18.4882505757027 -10.4830505654494 -4.32848246263042
  endloop
endfacet
facet normal -0.999999799107488 0.000590717580019321 0.000229864578012474
  outer loop
    vertex -18.4882505757027 -10.4830505654494 -4.32848246263042
    vertex -18.4857972750942 -11.2994038537987 -9.45682675377035
    vertex -18.4882505757027 -10.548682585826 -3.66604222607172
  endloop
endfacet
facet normal -0.999999799107488 0.000590717580019321 0.000229864578012474
  outer loop
    vertex -18.4889998105192 -4.69940928241323 -9.45682675377035
    vertex -18.4882505757027 -9.34531880717251 -5.9142449785442
    vertex -18.4882505757027 -8.73881272363539 -6.1886260998757
  endloop
endfacet
facet normal -0.999999799107488 0.000590717580019321 0.000229864578012474
  outer loop
    vertex -18.4889998105192 -4.69940928241323 -9.45682675377035
    vertex -18.4882505757027 -8.73881272363539 -6.1886260998757
    vertex -18.4882505757027 -8.08195777392828 -6.29668258582601
  endloop
endfacet
facet normal -0.999999799107488 0.000590717580019321 0.000229864578012474
  outer loop
    vertex -18.4889998105192 -4.69940928241323 -9.45682675377035
    vertex -18.4882505757027 -8.08195777392828 -6.29668258582601
    vertex -18.4882505757027 -7.41951753736958 -6.2310505654494
  endloop
endfacet
facet normal -0.999999799107488 0.000590717580019321 0.000229864578012474
  outer loop
    vertex -18.4889998105192 -4.69940928241323 -9.45682675377035
    vertex -18.4882505757027 -7.41951753736958 -6.2310505654494
    vertex -18.4882505757027 -6.79663622134651 -5.99620275247248
  endloop
endfacet
facet normal -0.999999799107488 0.000590717580019321 0.000229864578012474
  outer loop
    vertex -18.4889998105192 -4.69940928241323 -9.45682675377035
    vertex -18.4882505757027 -6.79663622134651 -5.99620275247248
    vertex -18.4882505757027 -6.25576215818601 -5.60814363724529
  endloop
endfacet
facet normal -0.999999799107488 0.000590717580019321 0.000229864578012474
  outer loop
    vertex -18.4889998105192 -4.69940928241323 -9.45682675377035
    vertex -18.4882505757027 -6.25576215818601 -5.60814363724529
    vertex -18.4882505757027 -5.8337550214558 -5.09331880717253
  endloop
endfacet
facet normal -0.999999799107488 0.000590717580019321 0.000229864578012474
  outer loop
    vertex -18.4889998105192 -4.69940928241323 -9.45682675377035
    vertex -18.4882505757027 -5.8337550214558 -5.09331880717253
    vertex -18.4882505757027 -5.5593739001243 -4.48681272363541
  endloop
endfacet
facet normal -0.999999799107488 0.000590717580019321 0.000229864578012474
  outer loop
    vertex -18.4889998105192 -4.69940928241323 -9.45682675377035
    vertex -18.4882505757027 -5.5593739001243 -4.48681272363541
    vertex -18.4882505757027 -5.45131741417399 -3.8299577739283
  endloop
endfacet
facet normal -0.999999799107488 0.000590717580019321 0.000229864578012474
  outer loop
    vertex -18.4889998105192 -4.69940928241323 -9.45682675377035
    vertex -18.4882505757027 -5.45131741417399 -3.8299577739283
    vertex -18.4779998105192 -4.69940928241323 7.50417324622965
  endloop
endfacet
facet normal -0.999998921919701 -0.00137592193560314 0.000512833562786937
  outer loop
    vertex -17.5 9.0 7.504
    vertex -17.489 -4.69999999999999 -9.457
    vertex -17.478 -4.69999999999999 7.504
  endloop
endfacet
facet normal -0.999998921919701 -0.00137592193560314 0.000512833562786937
  outer loop
    vertex -17.489 -4.69999999999999 -9.457
    vertex -17.5 9.0 7.504
    vertex -17.5 4.5 -9.457
  endloop
endfacet
facet normal -0.999998921919701 -0.00137592193560314 0.000512833562786937
  outer loop
    vertex -17.5 4.5 -9.457
    vertex -17.5 9.0 7.504
    vertex -17.5 9.0 0.0
  endloop
endfacet
facet normal 1.0 -0.0 -0.0
  outer loop
    vertex -8.5 -20.5 -9.457
    vertex -8.5 -12.1929857331868 -6.47176038617424
    vertex -8.5 -20.5 7.504
  endloop
endfacet
facet normal 1.0 -0.0 -0.0
  outer loop
    vertex -8.5 -12.1929857331868 -6.47176038617424
    vertex -8.5 -20.5 -9.457
    vertex -8.5 -11.345152146709 -7.46417506522068
  endloop
endfacet
facet normal 1.0 -0.0 -0.0
  outer loop
    vertex -8.5 -11.345152146709 -7.46417506522068
    vertex -8.5 -20.5 -9.457
    vertex -8.5 -10.2693519695584 -8.203338554842
  endloop
endfacet
facet normal 1.0 -0.0 -0.0
  outer loop
    vertex -8.5 -10.2693519695584 -8.203338554842
    vertex -8.5 -20.5 -9.457
    vertex -8.5 -9.03889920596373 -8.63887808474593
  endloop
endfacet
facet normal 1.0 -0.0 -0.0
  outer loop
    vertex -8.5 -9.03889920596373 -8.63887808474593
    vertex -8.5 -20.5 -9.457
    vertex -8.5 -7.73764717834479 -8.74111235573261
  endloop
endfacet
facet normal 1.0 -0.0 -0.0
  outer loop
    vertex -8.5 -7.73764717834479 -8.74111235573261
    vertex -8.5 -20.5 -9.457
    vertex -8.5 4.5 -9.457
  endloop
endfacet
facet normal 1.0 -0.0 -0.0
  outer loop
    vertex -8.5 -20.5 7.504
    vertex -8.5 -12.1929857331868 -6.47176038617424
    vertex -8.5 -12.7550742711844 -5.29372593803688
  endloop
endfacet
facet normal 1.0 -0.0 -0.0
  outer loop
    vertex -8.5 -20.5 7.504
    vertex -8.5 -12.7550742711844 -5.29372593803688
    vertex -8.5 -12.9931123557326 -4.01035282165521
  endloop
endfacet
facet normal 1.0 -0.0 -0.0
  outer loop
    vertex -8.5 -7.73764717834479 -8.74111235573261
    vertex -8.5 4.5 -9.457
    vertex -8.5 -6.45427406196311 -8.50307427118442
  endloop
endfacet
facet normal 1.0 -0.0 -0.0
  outer loop
    vertex -8.5 -6.45427406196311 -8.50307427118442
    vertex -8.5 4.5 -9.457
    vertex -8.5 -5.27623961382576 -7.9409857331868
  endloop
endfacet
facet normal 1.0 -0.0 -0.0
  outer loop
    vertex -8.5 -5.27623961382576 -7.9409857331868
    vertex -8.5 4.5 -9.457
    vertex -8.5 -4.28382493477932 -7.09315214670905
  endloop
endfacet
facet normal 1.0 -0.0 -0.0
  outer loop
    vertex -8.5 -4.28382493477932 -7.09315214670905
    vertex -8.5 4.5 -9.457
    vertex -8.5 -3.544661445158 -6.01735196955837
  endloop
endfacet
facet normal 1.0 -0.0 -0.0
  outer loop
    vertex -8.5 -3.544661445158 -6.01735196955837
    vertex -8.5 4.5 -9.457
    vertex -8.5 -3.10912191525407 -4.78689920596375
  endloop
endfacet
facet normal 1.0 -0.0 -0.0
  outer loop
    vertex -8.5 -3.10912191525407 -4.78689920596375
    vertex -8.5 4.5 -9.457
    vertex -8.5 -3.00688764426739 -3.48564717834481
  endloop
endfacet
facet normal 1.0 -0.0 -0.0
  outer loop
    vertex -8.5 -20.5 7.504
    vertex -8.5 -9.54572593803687 1.00707427118441
    vertex -8.5 4.5 7.5
  endloop
endfacet
facet normal 1.0 -0.0 -0.0
  outer loop
    vertex -8.5 -9.54572593803687 1.00707427118441
    vertex -8.5 -20.5 7.504
    vertex -8.5 -10.7237603861742 0.444985733186787
  endloop
endfacet
facet normal 1.0 -0.0 -0.0
  outer loop
    vertex -8.5 -10.7237603861742 0.444985733186787
    vertex -8.5 -20.5 7.504
    vertex -8.5 -11.7161750652207 -0.402847853290965
  endloop
endfacet
facet normal 1.0 -0.0 -0.0
  outer loop
    vertex -8.5 -11.7161750652207 -0.402847853290965
    vertex -8.5 -20.5 7.504
    vertex -8.5 -12.455338554842 -1.47864803044164
  endloop
endfacet
facet normal 1.0 -0.0 -0.0
  outer loop
    vertex -8.5 -12.455338554842 -1.47864803044164
    vertex -8.5 -20.5 7.504
    vertex -8.5 -12.8908780847459 -2.70910079403627
  endloop
endfacet
facet normal 1.0 -0.0 -0.0
  outer loop
    vertex -8.5 -12.8908780847459 -2.70910079403627
    vertex -8.5 -20.5 7.504
    vertex -8.5 -12.9931123557326 -4.01035282165521
  endloop
endfacet
facet normal 1.0 -0.0 -0.0
  outer loop
    vertex -8.5 4.5 7.5
    vertex -8.5 -9.54572593803687 1.00707427118441
    vertex -8.5 -8.26235282165519 1.24511235573259
  endloop
endfacet
facet normal 1.0 -0.0 -0.0
  outer loop
    vertex -8.5 4.5 7.5
    vertex -8.5 -8.26235282165519 1.24511235573259
    vertex -8.5 -6.96110079403625 1.14287808474591
  endloop
endfacet
facet normal 1.0 -0.0 -0.0
  outer loop
    vertex -8.5 4.5 7.5
    vertex -8.5 -6.96110079403625 1.14287808474591
    vertex -8.5 -5.73064803044162 0.707338554841988
  endloop
endfacet
facet normal 1.0 -0.0 -0.0
  outer loop
    vertex -8.5 4.5 7.5
    vertex -8.5 -5.73064803044162 0.707338554841988
    vertex -8.5 -4.65484785329095 -0.0318249347793328
  endloop
endfacet
facet normal 1.0 -0.0 -0.0
  outer loop
    vertex -8.5 4.5 7.5
    vertex -8.5 -4.65484785329095 -0.0318249347793328
    vertex -8.5 -3.8070142668132 -1.02423961382578
  endloop
endfacet
facet normal 1.0 -0.0 -0.0
  outer loop
    vertex -8.5 4.5 7.5
    vertex -8.5 -3.8070142668132 -1.02423961382578
    vertex -8.5 -3.24492572881557 -2.20227406196313
  endloop
endfacet
facet normal 1.0 -0.0 -0.0
  outer loop
    vertex -8.5 4.5 7.5
    vertex -8.5 -3.24492572881557 -2.20227406196313
    vertex -8.5 -3.00688764426739 -3.48564717834481
  endloop
endfacet
facet normal 1.0 -0.0 -0.0
  outer loop
    vertex -8.5 4.5 7.5
    vertex -8.5 -3.00688764426739 -3.48564717834481
    vertex -8.5 4.5 -9.457
  endloop
endfacet
facet normal 1.0 -0.0 -0.0
  outer loop
    vertex -8.5 4.5 7.5
    vertex -8.5 4.5 -9.457
    vertex -8.5 4.5 0.0
  endloop
endfacet
facet normal 0.998935436289111 0.0461301867098151 -1.40014585933839e-017
  outer loop
    vertex -8.70780706405342 9.0 0.0
    vertex -8.5 4.5 0.0
    vertex -8.5 4.5 -9.457
  endloop
endfacet
endsolid Untitled-54c6f26e
